{"title":"Thor Ragnarok 2017 NEW FULL HDCAM ENG X264-DADDY","magnet":"magnet:?xt=urn:btih:fc77d1ed9830c659c0b57e91cf569147ae8fe0ae&dn=Thor+Ragnarok+2017+NEW+FULL+HDCAM+ENG+X264-DADDY&tr=udp%3A%2F%2Ftracker.leechers-paradise.org%3A6969&tr=udp%3A%2F%2Fzer0day.ch%3A1337&tr=udp%3A%2F%2Fopen.demonii.com%3A1337&tr=udp%3A%2F%2Ftracker.coppersurfer.tk%3A6969&tr=udp%3A%2F%2Fexodus.desync.com%3A6969","uploader":"makintos13","categoryP":"video","categoryS":"movies","size":"2178623174","seeders":"127","leechers":"245","description":"screens:\r\n  <a href=\"\nhttps://imgmak.com/kiK\" rel=\"nofollow\" target=\"_NEW\">\nhttps://imgmak.com/kiK</a>\r\n  <a href=\"\nhttps://imgmak.com/kiT\" rel=\"nofollow\" target=\"_NEW\">\nhttps://imgmak.com/kiT</a>\r\n  <a href=\"\nhttps://imgmak.com/kia\" rel=\"nofollow\" target=\"_NEW\">\nhttps://imgmak.com/kia</a>\r\n  <a href=\"\nhttps://imgmak.com/kip\" rel=\"nofollow\" target=\"_NEW\">\nhttps://imgmak.com/kip</a>\r\n  <a href=\"\nhttps://imgmak.com/kiR\" rel=\"nofollow\" target=\"_NEW\">\nhttps://imgmak.com/kiR</a>\r\n  <a href=\"\nhttps://imgmak.com/kib\" rel=\"nofollow\" target=\"_NEW\">\nhttps://imgmak.com/kib</a>\r\n\r\n\r\nSource: Multiple Sources\r\nSample: Yes 2 included\r\nLanguage: English\r\n\r\nFormat                      : Matroska\r\nFile size                   : 1.99 GiB\r\nDuration                    : 2 h 1 min\r\nOverall bit rate mode       : Variable\r\nOverall bit rate            : 2 351 kb/s\r\nMovie name                  : WwW.SeeHD.WS\r\n\r\nVideo\r\nID                          : 1\r\nFormat                      : AVC\r\nFormat/Info                 : Advanced Video Codec\r\nFormat settings, CABAC      : Yes\r\nFormat settings, ReFrames   : 6 frames\r\nCodec ID                    : V_MPEG4/ISO/AVC\r\nDuration                    : 2 h 1 min\r\nBit rate mode               : Variable\r\nBit rate                    : 2 100 kb/s\r\nMaximum bit rate            : 62.5 Mb/s\r\nWidth                       : 720 pixels\r\nHeight                      : 352 pixels\r\nDisplay aspect ratio        : 2.045\r\nFrame rate mode             : Constant\r\nFrame rate                  : 30.000 FPS\r\nColor space                 : YUV\r\nChroma subsampling          : 4:2:0\r\nBit depth                   : 8 bits\r\nScan type                   : Progressive\r\nBits/(Pixel*Frame)          : 0.276\r\nStream size                 : 1.77 GiB (89%)\r\n\r\nAudio\r\nID                          : 2\r\nFormat                      : AAC\r\nFormat/Info                 : Advanced Audio Codec\r\nFormat profile              : LC\r\nCodec ID                    : A_AAC\r\nDuration                    : 2 h 1 min\r\nBit rate                    : 254 kb/s\r\nChannel(s)                  : 2 channels\r\nChannel positions           : Front: L R\r\nSampling rate               : 44.1 kHz\r\nFrame rate                  : 43.066 FPS (1024 spf)\r\nCompression mode            : Lossy\r\nStream size                 : 220 MiB (11%)\r\nLanguage                    : English\r\nDefault                     : Yes\r\nForced                      : No","last_updated":"2017-12-01T12:07:44.907Z","parsed":{"xt":"urn:btih:fc77d1ed9830c659c0b57e91cf569147ae8fe0ae","dn":"Thor Ragnarok 2017 NEW FULL HDCAM ENG X264-DADDY","tr":["udp://exodus.desync.com:6969","udp://open.demonii.com:1337","udp://tracker.coppersurfer.tk:6969","udp://tracker.leechers-paradise.org:6969","udp://zer0day.ch:1337"],"infoHash":"fc77d1ed9830c659c0b57e91cf569147ae8fe0ae","infoHashBuffer":{"type":"Buffer","data":[252,119,209,237,152,48,198,89,192,181,126,145,207,86,145,71,174,143,224,174]},"name":"Thor Ragnarok 2017 NEW FULL HDCAM ENG X264-DADDY","announce":["udp://exodus.desync.com:6969","udp://open.demonii.com:1337","udp://tracker.coppersurfer.tk:6969","udp://tracker.leechers-paradise.org:6969","udp://zer0day.ch:1337"],"urlList":[]}}